<?xml version="1.0"?><svg fill="#000000" xmlns="http://www.w3.org/2000/svg"  viewBox="0 0 128 128" width="64px" height="64px">    <path d="M 64 6.0507812 C 49.15 6.0507812 34.3 11.7 23 23 C 0.4 45.6 0.4 82.4 23 105 C 34.3 116.3 49.2 122 64 122 C 78.8 122 93.7 116.3 105 105 C 106.2 103.8 106.2 101.90078 105 100.80078 C 103.8 99.600781 101.90078 99.600781 100.80078 100.80078 C 80.500781 121.10078 47.500781 121.10078 27.300781 100.80078 C 7.0007813 80.500781 6.9992188 47.499219 27.199219 27.199219 C 47.499219 6.9992188 80.500781 6.9992188 100.80078 27.199219 C 101.90078 28.399219 103.8 28.399219 105 27.199219 C 106.2 25.999219 106.2 24.1 105 23 C 93.7 11.7 78.85 6.0507812 64 6.0507812 z M 102 46 C 101.3 46 100.50039 46.300391 99.900391 46.900391 C 98.700391 48.100391 98.700391 49.999609 99.900391 51.099609 L 109.80078 61 L 79 61 C 77.3 61 76 62.3 76 64 C 76 65.7 77.3 67 79 67 L 109.80078 67 L 99.900391 76.900391 C 98.700391 78.100391 98.700391 79.999609 99.900391 81.099609 C 101.10039 82.299609 102.99961 82.299609 104.09961 81.099609 L 119.09961 66.099609 C 119.69961 65.499609 120 64.8 120 64 C 120 63.2 119.69961 62.500391 119.09961 61.900391 L 104.09961 46.900391 C 103.49961 46.300391 102.7 46 102 46 z M 64 61 A 3 3 0 0 0 61 64 A 3 3 0 0 0 64 67 A 3 3 0 0 0 67 64 A 3 3 0 0 0 64 61 z"/></svg>