<svg xmlns="http://www.w3.org/2000/svg" width="37.989" height="37.989" viewBox="0 0 37.989 37.989">
  <path id="icon-modify" d="M36,5.01a6.976,6.976,0,0,0-4.949,2.041L8.916,29.184A3.5,3.5,0,0,0,8.025,30.7L5.059,41.088a1.5,1.5,0,0,0,1.854,1.854L17.3,39.975l0,0a3.505,3.505,0,0,0,1.512-.889L40.949,16.949A6.99,6.99,0,0,0,36,5.01Zm-7.877,9.211,5.656,5.656L16.693,36.963a.506.506,0,0,1-.217.127l-.988.281L10.627,32.51l.283-.988v0a.489.489,0,0,1,.127-.215Z" transform="translate(-5.001 -5.01)" fill="#e4e4e4"/>
</svg>
