<svg xmlns="http://www.w3.org/2000/svg" xmlns:xlink="http://www.w3.org/1999/xlink" width="105" height="77.249" viewBox="0 0 105 77.249">
  <defs>
    <clipPath id="clip-path">
      <rect y="-9" width="105" height="77.249" fill="none"/>
    </clipPath>
  </defs>
  <g id="Groupe_défilant_12" data-name="Groupe défilant 12" transform="translate(0 9)" clip-path="url(#clip-path)" style="isolation: isolate">
    <g id="loginuser" transform="translate(-41 -1851.438)">
      <g id="noun-user-5196158" transform="translate(-31.171 1746.438)">
        <path id="Tracé_416" data-name="Tracé 416" d="M293.6,120.552A15.552,15.552,0,1,1,278.052,105,15.552,15.552,0,0,1,293.6,120.552" transform="translate(-159.576)" fill="#f7f5f3"/>
        <path id="Tracé_417" data-name="Tracé 417" d="M234.035,306.25A24.014,24.014,0,0,0,210,330.285h48.069A24.014,24.014,0,0,0,234.035,306.25Z" transform="translate(-115.559 -168.733)" fill="#f7f5f3"/>
        <g id="Groupe_157" data-name="Groupe 157" transform="translate(72.171 194.478)">
          <path id="Tracé_418" data-name="Tracé 418" d="M6.556-27.506a3.376,3.376,0,0,1-.765.285,3.415,3.415,0,0,1-.826.1,2.838,2.838,0,0,1-2.042-.72A2.576,2.576,0,0,1,2.171-29.8a2.576,2.576,0,0,1,.752-1.954,2.837,2.837,0,0,1,2.042-.72,3.511,3.511,0,0,1,.826.1,3.355,3.355,0,0,1,.765.288v1.065a2.917,2.917,0,0,0-.73-.369,2.4,2.4,0,0,0-.755-.119,1.421,1.421,0,0,0-1.118.457A1.813,1.813,0,0,0,3.547-29.8a1.818,1.818,0,0,0,.406,1.255,1.424,1.424,0,0,0,1.118.454,2.431,2.431,0,0,0,.755-.116,2.952,2.952,0,0,0,.73-.371Z" transform="translate(-2.171 32.469)" fill="#f7f5f3"/>
        </g>
        <g id="Groupe_158" data-name="Groupe 158" transform="translate(77.602 195.766)">
          <path id="Tracé_419" data-name="Tracé 419" d="M6.545-23.353a1.63,1.63,0,0,0-.326-.111A1.382,1.382,0,0,0,5.9-23.5a.909.909,0,0,0-.735.305,1.331,1.331,0,0,0-.255.876v1.78H3.672v-3.865H4.909v.634a1.567,1.567,0,0,1,.545-.553A1.494,1.494,0,0,1,6.2-24.5c.04,0,.085,0,.134.005s.119.011.21.023Z" transform="translate(-3.672 24.499)" fill="#f7f5f3"/>
        </g>
        <g id="Groupe_159" data-name="Groupe 159" transform="translate(80.797 195.766)">
          <path id="Tracé_420" data-name="Tracé 420" d="M6.025-22.485v.353H3.134a.919.919,0,0,0,.313.651,1.172,1.172,0,0,0,.755.217,2.976,2.976,0,0,0,.8-.114,4.1,4.1,0,0,0,.841-.351v.952a5.156,5.156,0,0,1-.876.25,4.594,4.594,0,0,1-.876.086,2.332,2.332,0,0,1-1.633-.533,1.933,1.933,0,0,1-.581-1.5,1.949,1.949,0,0,1,.571-1.487A2.2,2.2,0,0,1,4.018-24.5a1.969,1.969,0,0,1,1.459.55,1.981,1.981,0,0,1,.548,1.464Zm-1.27-.409a.786.786,0,0,0-.207-.568.7.7,0,0,0-.535-.217.843.843,0,0,0-.586.2.94.94,0,0,0-.278.583Z" transform="translate(-1.874 24.5)" fill="#f7f5f3"/>
        </g>
        <g id="Groupe_160" data-name="Groupe 160" transform="translate(85.592 195.766)">
          <path id="Tracé_421" data-name="Tracé 421" d="M3.9-22.281a1.047,1.047,0,0,0-.581.131.436.436,0,0,0-.194.386.458.458,0,0,0,.157.369.659.659,0,0,0,.437.131.776.776,0,0,0,.586-.25.869.869,0,0,0,.24-.626v-.141Zm1.889-.467v2.206H4.542v-.573a1.608,1.608,0,0,1-.56.513,1.625,1.625,0,0,1-.755.162,1.373,1.373,0,0,1-.977-.351,1.188,1.188,0,0,1-.374-.909,1.117,1.117,0,0,1,.467-1,2.666,2.666,0,0,1,1.469-.318h.73v-.1a.462.462,0,0,0-.232-.429,1.465,1.465,0,0,0-.722-.136,3.2,3.2,0,0,0-.737.081,2.537,2.537,0,0,0-.636.237V-24.3a6.649,6.649,0,0,1,.8-.146,6.442,6.442,0,0,1,.8-.05,2.238,2.238,0,0,1,1.51.414,1.708,1.708,0,0,1,.465,1.338Z" transform="translate(-1.876 24.501)" fill="#f7f5f3"/>
        </g>
        <g id="Groupe_161" data-name="Groupe 161" transform="translate(90.152 194.761)">
          <path id="Tracé_422" data-name="Tracé 422" d="M2.428-30.719v1.1H3.7v.884H2.428V-27.1a.486.486,0,0,0,.106.366.675.675,0,0,0,.424.093h.636v.884H2.534A1.435,1.435,0,0,1,1.5-26.061,1.435,1.435,0,0,1,1.191-27.1v-1.639H.578v-.884h.613v-1.1Z" transform="translate(-0.578 30.719)" fill="#f7f5f3"/>
        </g>
        <g id="Groupe_162" data-name="Groupe 162" transform="translate(93.741 195.766)">
          <path id="Tracé_423" data-name="Tracé 423" d="M6.025-22.485v.353H3.134a.919.919,0,0,0,.313.651,1.172,1.172,0,0,0,.755.217,2.976,2.976,0,0,0,.8-.114,4.1,4.1,0,0,0,.841-.351v.952a5.156,5.156,0,0,1-.876.25,4.594,4.594,0,0,1-.876.086,2.332,2.332,0,0,1-1.633-.533,1.933,1.933,0,0,1-.581-1.5,1.949,1.949,0,0,1,.571-1.487A2.2,2.2,0,0,1,4.018-24.5a1.969,1.969,0,0,1,1.459.55,1.981,1.981,0,0,1,.548,1.464Zm-1.27-.409a.786.786,0,0,0-.207-.568.7.7,0,0,0-.535-.217.843.843,0,0,0-.586.2.94.94,0,0,0-.278.583Z" transform="translate(-1.874 24.5)" fill="#f7f5f3"/>
        </g>
        <g id="Groupe_163" data-name="Groupe 163" transform="translate(98.55 194.355)">
          <path id="Tracé_424" data-name="Tracé 424" d="M4.875-31.164v-2.07H6.117v5.37H4.875v-.558a1.679,1.679,0,0,1-.563.5,1.533,1.533,0,0,1-.712.159,1.444,1.444,0,0,1-1.174-.568,2.258,2.258,0,0,1-.457-1.462,2.258,2.258,0,0,1,.457-1.462A1.444,1.444,0,0,1,3.6-31.823a1.511,1.511,0,0,1,.709.162,1.679,1.679,0,0,1,.566.5Zm-.815,2.5a.7.7,0,0,0,.606-.29,1.425,1.425,0,0,0,.21-.841,1.432,1.432,0,0,0-.21-.843.7.7,0,0,0-.606-.29.7.7,0,0,0-.6.29,1.442,1.442,0,0,0-.207.843,1.435,1.435,0,0,0,.207.841A.7.7,0,0,0,4.059-28.662Z" transform="translate(-1.969 33.234)" fill="#f7f5f3"/>
        </g>
        <g id="Groupe_164" data-name="Groupe 164" transform="translate(106.347 194.355)">
          <path id="Tracé_425" data-name="Tracé 425" d="M5.729-28.662a.7.7,0,0,0,.606-.29,1.425,1.425,0,0,0,.21-.841,1.432,1.432,0,0,0-.21-.843.7.7,0,0,0-.606-.29.706.706,0,0,0-.608.293,1.413,1.413,0,0,0-.212.841,1.418,1.418,0,0,0,.212.841.707.707,0,0,0,.608.29Zm-.821-2.5a1.673,1.673,0,0,1,.566-.5,1.53,1.53,0,0,1,.714-.162,1.445,1.445,0,0,1,1.174.568,2.252,2.252,0,0,1,.459,1.462,2.252,2.252,0,0,1-.459,1.462,1.445,1.445,0,0,1-1.174.568,1.53,1.53,0,0,1-.714-.162,1.7,1.7,0,0,1-.566-.5v.558H3.672v-5.37H4.909Z" transform="translate(-3.672 33.234)" fill="#f7f5f3"/>
        </g>
        <g id="Groupe_165" data-name="Groupe 165" transform="translate(110.899 195.859)">
          <path id="Tracé_426" data-name="Tracé 426" d="M.531-23.922H1.768L2.806-21.3l.884-2.623H4.927L3.3-19.691a2.045,2.045,0,0,1-.573.9,1.349,1.349,0,0,1-.861.258H1.152v-.81h.386a.807.807,0,0,0,.457-.1A.655.655,0,0,0,2.22-19.8l.033-.106Z" transform="translate(-0.531 23.922)" fill="#f7f5f3"/>
        </g>
        <g id="Groupe_166" data-name="Groupe 166" transform="translate(118.531 194.572)">
          <path id="Tracé_427" data-name="Tracé 427" d="M4.016-31.891H5.5l1.873,3.534v-3.534h1.26v5.153H7.149L5.275-30.273v3.534H4.016Z" transform="translate(-4.016 31.891)" fill="#f7f5f3"/>
        </g>
        <g id="Groupe_167" data-name="Groupe 167" transform="translate(124.352 195.859)">
          <path id="Tracé_428" data-name="Tracé 428" d="M3.422-21.561v-2.36H4.664v.386q0,.313-.005.788c0,.317,0,.528,0,.634,0,.312.008.535.023.672a.724.724,0,0,0,.086.3.522.522,0,0,0,.2.187.588.588,0,0,0,.283.066.713.713,0,0,0,.606-.3,1.356,1.356,0,0,0,.222-.826v-1.909H7.307v3.865H6.073v-.558a1.948,1.948,0,0,1-.593.5,1.471,1.471,0,0,1-.687.162,1.267,1.267,0,0,1-1.022-.412,1.8,1.8,0,0,1-.348-1.194Z" transform="translate(-3.422 23.922)" fill="#f7f5f3"/>
        </g>
        <g id="Groupe_168" data-name="Groupe 168" transform="translate(129.424 195.766)">
          <path id="Tracé_429" data-name="Tracé 429" d="M7.559-22.894v2.353H6.315v-1.8a6.859,6.859,0,0,0-.023-.689.711.711,0,0,0-.076-.28.509.509,0,0,0-.2-.187.577.577,0,0,0-.283-.068.718.718,0,0,0-.608.3,1.372,1.372,0,0,0-.22.828v1.9H3.672v-3.865H4.909v.566a1.877,1.877,0,0,1,.591-.5,1.51,1.51,0,0,1,.7-.162,1.253,1.253,0,0,1,1.015.412,1.8,1.8,0,0,1,.348,1.194Z" transform="translate(-3.672 24.499)" fill="#f7f5f3"/>
        </g>
        <g id="Groupe_169" data-name="Groupe 169" transform="translate(134.457 195.766)">
          <path id="Tracé_430" data-name="Tracé 430" d="M7.559-22.894v2.353H6.315v-1.8a6.859,6.859,0,0,0-.023-.689.711.711,0,0,0-.076-.28.509.509,0,0,0-.2-.187.577.577,0,0,0-.283-.068.718.718,0,0,0-.608.3,1.372,1.372,0,0,0-.22.828v1.9H3.672v-3.865H4.909v.566a1.877,1.877,0,0,1,.591-.5,1.51,1.51,0,0,1,.7-.162,1.253,1.253,0,0,1,1.015.412,1.8,1.8,0,0,1,.348,1.194Z" transform="translate(-3.672 24.499)" fill="#f7f5f3"/>
        </g>
        <g id="Groupe_170" data-name="Groupe 170" transform="translate(139.489 194.355)">
          <path id="Tracé_431" data-name="Tracé 431" d="M3.672-31.73H4.909v3.865H3.672Zm0-1.5H4.909v1.007H3.672Z" transform="translate(-3.672 33.235)" fill="#f7f5f3"/>
        </g>
        <g id="Groupe_171" data-name="Groupe 171" transform="translate(141.622 195.766)">
          <path id="Tracé_432" data-name="Tracé 432" d="M5.288-24.285v1.007a1.891,1.891,0,0,0-.5-.255,1.666,1.666,0,0,0-.525-.083,1.065,1.065,0,0,0-.808.3,1.171,1.171,0,0,0-.288.843,1.175,1.175,0,0,0,.288.843,1.065,1.065,0,0,0,.808.3,1.741,1.741,0,0,0,.55-.086,1.648,1.648,0,0,0,.48-.258v1.012A3.42,3.42,0,0,1,4.7-20.5a3.3,3.3,0,0,1-.6.056,2.341,2.341,0,0,1-1.636-.538,1.916,1.916,0,0,1-.591-1.492,1.912,1.912,0,0,1,.591-1.492A2.341,2.341,0,0,1,4.1-24.5a3.38,3.38,0,0,1,.6.053,3.487,3.487,0,0,1,.588.162Z" transform="translate(-1.875 24.5)" fill="#f7f5f3"/>
        </g>
        <g id="Groupe_172" data-name="Groupe 172" transform="translate(146.103 194.355)">
          <path id="Tracé_433" data-name="Tracé 433" d="M7.559-30.216v2.353H6.315v-1.795q0-.507-.023-.7a.711.711,0,0,0-.076-.28.509.509,0,0,0-.2-.187.577.577,0,0,0-.283-.068.718.718,0,0,0-.608.3,1.372,1.372,0,0,0-.22.828v1.9H3.672v-5.37H4.909v2.07a1.877,1.877,0,0,1,.591-.5,1.51,1.51,0,0,1,.7-.162,1.253,1.253,0,0,1,1.015.412,1.8,1.8,0,0,1,.348,1.194Z" transform="translate(-3.672 33.233)" fill="#f7f5f3"/>
        </g>
        <g id="Groupe_173" data-name="Groupe 173" transform="translate(150.845 195.766)">
          <path id="Tracé_434" data-name="Tracé 434" d="M3.9-22.281a1.047,1.047,0,0,0-.581.131.436.436,0,0,0-.194.386.458.458,0,0,0,.157.369.659.659,0,0,0,.437.131.776.776,0,0,0,.586-.25.869.869,0,0,0,.24-.626v-.141Zm1.889-.467v2.206H4.542v-.573a1.608,1.608,0,0,1-.56.513,1.625,1.625,0,0,1-.755.162,1.373,1.373,0,0,1-.977-.351,1.188,1.188,0,0,1-.374-.909,1.117,1.117,0,0,1,.467-1,2.666,2.666,0,0,1,1.469-.318h.73v-.1a.462.462,0,0,0-.232-.429,1.465,1.465,0,0,0-.722-.136,3.2,3.2,0,0,0-.737.081,2.537,2.537,0,0,0-.636.237V-24.3a6.649,6.649,0,0,1,.8-.146,6.442,6.442,0,0,1,.8-.05,2.238,2.238,0,0,1,1.51.414,1.708,1.708,0,0,1,.465,1.338Z" transform="translate(-1.876 24.501)" fill="#f7f5f3"/>
        </g>
        <g id="Groupe_174" data-name="Groupe 174" transform="translate(158.281 194.478)">
          <path id="Tracé_435" data-name="Tracé 435" d="M6.87-32.214v1.091a4.822,4.822,0,0,0-.831-.285,3.229,3.229,0,0,0-.762-.1,1.468,1.468,0,0,0-.7.131.44.44,0,0,0-.227.409.381.381,0,0,0,.154.323,1.52,1.52,0,0,0,.558.2l.566.114a2.473,2.473,0,0,1,1.222.525,1.326,1.326,0,0,1,.364,1,1.547,1.547,0,0,1-.507,1.27,2.4,2.4,0,0,1-1.545.417,5.327,5.327,0,0,1-.985-.093,5.931,5.931,0,0,1-.985-.278v-1.121a4.957,4.957,0,0,0,.952.4,3.246,3.246,0,0,0,.891.131,1.26,1.26,0,0,0,.664-.144.463.463,0,0,0,.232-.414.461.461,0,0,0-.157-.374,1.606,1.606,0,0,0-.626-.235l-.515-.114A2.227,2.227,0,0,1,3.5-29.894a1.336,1.336,0,0,1-.356-.977,1.453,1.453,0,0,1,.5-1.184,2.179,2.179,0,0,1,1.429-.414,6.347,6.347,0,0,1,.874.063,7.808,7.808,0,0,1,.929.192Z" transform="translate(-3.141 32.469)" fill="#f7f5f3"/>
        </g>
        <g id="Groupe_175" data-name="Groupe 175" transform="translate(163.417 195.859)">
          <path id="Tracé_436" data-name="Tracé 436" d="M3.422-21.561v-2.36H4.664v.386q0,.313-.005.788c0,.317,0,.528,0,.634,0,.312.008.535.023.672a.724.724,0,0,0,.086.3.522.522,0,0,0,.2.187.588.588,0,0,0,.283.066.713.713,0,0,0,.606-.3,1.356,1.356,0,0,0,.222-.826v-1.909H7.307v3.865H6.073v-.558a1.948,1.948,0,0,1-.593.5,1.471,1.471,0,0,1-.687.162,1.267,1.267,0,0,1-1.022-.412,1.8,1.8,0,0,1-.348-1.194Z" transform="translate(-3.422 23.922)" fill="#f7f5f3"/>
        </g>
        <g id="Groupe_176" data-name="Groupe 176" transform="translate(168.491 195.766)">
          <path id="Tracé_437" data-name="Tracé 437" d="M4.909-21.1v2.027H3.672v-5.335H4.909v.566a1.673,1.673,0,0,1,.566-.5,1.53,1.53,0,0,1,.714-.162,1.445,1.445,0,0,1,1.174.568,2.252,2.252,0,0,1,.459,1.462,2.252,2.252,0,0,1-.459,1.462,1.445,1.445,0,0,1-1.174.568,1.53,1.53,0,0,1-.714-.162,1.7,1.7,0,0,1-.566-.5Zm.821-2.5a.706.706,0,0,0-.608.293,1.413,1.413,0,0,0-.212.841,1.418,1.418,0,0,0,.212.841.707.707,0,0,0,.608.29.7.7,0,0,0,.606-.29,1.425,1.425,0,0,0,.21-.841,1.432,1.432,0,0,0-.21-.843.7.7,0,0,0-.606-.29Z" transform="translate(-3.672 24.5)" fill="#f7f5f3"/>
        </g>
        <g id="Groupe_177" data-name="Groupe 177" transform="translate(173.26 195.766)">
          <path id="Tracé_438" data-name="Tracé 438" d="M3.9-22.281a1.047,1.047,0,0,0-.581.131.436.436,0,0,0-.194.386.458.458,0,0,0,.157.369.659.659,0,0,0,.437.131.776.776,0,0,0,.586-.25.869.869,0,0,0,.24-.626v-.141Zm1.889-.467v2.206H4.542v-.573a1.608,1.608,0,0,1-.56.513,1.625,1.625,0,0,1-.755.162,1.373,1.373,0,0,1-.977-.351,1.188,1.188,0,0,1-.374-.909,1.117,1.117,0,0,1,.467-1,2.666,2.666,0,0,1,1.469-.318h.73v-.1a.462.462,0,0,0-.232-.429,1.465,1.465,0,0,0-.722-.136,3.2,3.2,0,0,0-.737.081,2.537,2.537,0,0,0-.636.237V-24.3a6.649,6.649,0,0,1,.8-.146,6.442,6.442,0,0,1,.8-.05,2.238,2.238,0,0,1,1.51.414,1.708,1.708,0,0,1,.465,1.338Z" transform="translate(-1.876 24.501)" fill="#f7f5f3"/>
        </g>
      </g>
    </g>
  </g>
</svg>
