<svg xmlns="http://www.w3.org/2000/svg" width="116" height="93.231" viewBox="0 0 116 93.231">
  <g id="logoutuser" transform="translate(-179 -1854.769)">
    <g id="noun-logout-5196183" transform="translate(115.329 1767.269)">
      <path id="Tracé_439" data-name="Tracé 439" d="M210.269,289.153a20.236,20.236,0,0,0-3.978-.4A22.522,22.522,0,0,0,183.75,311.3h26.519Z" transform="translate(-94.671 -170.758)"/>
      <path id="Tracé_440" data-name="Tracé 440" d="M260.117,112.693h.663a14.538,14.538,0,1,0-9.944,3.978,15.877,15.877,0,0,0,4.376-.663A5.2,5.2,0,0,1,260.117,112.693Z" transform="translate(-139.215)"/>
      <path id="Tracé_441" data-name="Tracé 441" d="M400.117,271.25H378.9a2.66,2.66,0,0,0-2.652,2.652V300.42a2.66,2.66,0,0,0,2.652,2.652h21.215a2.66,2.66,0,0,0,2.652-2.652V273.9A2.66,2.66,0,0,0,400.117,271.25Zm-6.63,23.867a3.907,3.907,0,0,1-3.978,3.978h-5.3a3.907,3.907,0,0,1-3.978-3.978V279.206a3.907,3.907,0,0,1,3.978-3.978h5.3a3.907,3.907,0,0,1,3.978,3.978v2.519a1.326,1.326,0,1,1-2.652,0v-2.519a1.253,1.253,0,0,0-1.326-1.326h-5.3a1.253,1.253,0,0,0-1.326,1.326v15.911a1.253,1.253,0,0,0,1.326,1.326h5.3a1.253,1.253,0,0,0,1.326-1.326v-2.652a1.326,1.326,0,1,1,2.652,0Zm6.364-7.16-2.652,3.978a1.637,1.637,0,0,1-1.061.53,1.885,1.885,0,0,1-.8-.265,1.3,1.3,0,0,1-.4-1.856l1.326-1.856h-6.762a1.326,1.326,0,1,1,0-2.652h6.762l-1.326-1.856a1.342,1.342,0,1,1,2.254-1.459l2.652,3.978A1.037,1.037,0,0,1,399.852,287.957Z" transform="translate(-258 -155.906)"/>
      <g id="Groupe_178" data-name="Groupe 178" transform="translate(72.171 174.069)">
        <path id="Tracé_442" data-name="Tracé 442" d="M6.284-27.814a3.166,3.166,0,0,1-.717.268,3.2,3.2,0,0,1-.774.092,2.661,2.661,0,0,1-1.916-.675,2.415,2.415,0,0,1-.706-1.833,2.416,2.416,0,0,1,.706-1.833,2.661,2.661,0,0,1,1.916-.675,3.293,3.293,0,0,1,.774.09,3.146,3.146,0,0,1,.717.27v1a2.736,2.736,0,0,0-.684-.346,2.247,2.247,0,0,0-.708-.111,1.333,1.333,0,0,0-1.049.429,1.7,1.7,0,0,0-.381,1.177,1.7,1.7,0,0,0,.381,1.177,1.335,1.335,0,0,0,1.049.426,2.28,2.28,0,0,0,.708-.109,2.768,2.768,0,0,0,.684-.348Z" transform="translate(-2.171 32.469)"/>
      </g>
      <g id="Groupe_179" data-name="Groupe 179" transform="translate(77.264 175.277)">
        <path id="Tracé_443" data-name="Tracé 443" d="M6.366-23.425a1.529,1.529,0,0,0-.305-.1,1.3,1.3,0,0,0-.3-.036.852.852,0,0,0-.689.286,1.249,1.249,0,0,0-.239.822v1.669H3.672v-3.625h1.16v.594a1.469,1.469,0,0,1,.511-.519,1.4,1.4,0,0,1,.7-.163c.038,0,.079,0,.125,0s.111.011.2.021Z" transform="translate(-3.672 24.499)"/>
      </g>
      <g id="Groupe_180" data-name="Groupe 180" transform="translate(80.261 175.276)">
        <path id="Tracé_444" data-name="Tracé 444" d="M5.767-22.61v.331H3.056a.861.861,0,0,0,.294.611,1.1,1.1,0,0,0,.708.2,2.791,2.791,0,0,0,.748-.107,3.847,3.847,0,0,0,.788-.329v.893a4.836,4.836,0,0,1-.822.234,4.308,4.308,0,0,1-.822.081,2.187,2.187,0,0,1-1.532-.5,1.813,1.813,0,0,1-.545-1.4,1.828,1.828,0,0,1,.535-1.395A2.059,2.059,0,0,1,3.885-24.5a1.847,1.847,0,0,1,1.369.516,1.858,1.858,0,0,1,.514,1.373Zm-1.191-.384a.737.737,0,0,0-.194-.533.659.659,0,0,0-.5-.2.79.79,0,0,0-.549.189.882.882,0,0,0-.26.547Z" transform="translate(-1.874 24.5)"/>
      </g>
      <g id="Groupe_181" data-name="Groupe 181" transform="translate(84.758 175.276)">
        <path id="Tracé_445" data-name="Tracé 445" d="M3.772-22.419a.982.982,0,0,0-.545.123.409.409,0,0,0-.182.362.429.429,0,0,0,.147.346.618.618,0,0,0,.41.123.728.728,0,0,0,.549-.234.815.815,0,0,0,.225-.587v-.133Zm1.771-.438v2.069H4.376v-.537a1.508,1.508,0,0,1-.526.481,1.524,1.524,0,0,1-.708.152,1.288,1.288,0,0,1-.916-.329,1.114,1.114,0,0,1-.35-.852,1.048,1.048,0,0,1,.438-.935,2.5,2.5,0,0,1,1.378-.3h.684V-23.2a.434.434,0,0,0-.218-.4,1.374,1.374,0,0,0-.677-.128,3,3,0,0,0-.691.076,2.379,2.379,0,0,0-.6.223v-.883a6.235,6.235,0,0,1,.748-.137,6.042,6.042,0,0,1,.751-.047,2.1,2.1,0,0,1,1.416.388,1.6,1.6,0,0,1,.436,1.255Z" transform="translate(-1.876 24.501)"/>
      </g>
      <g id="Groupe_182" data-name="Groupe 182" transform="translate(89.035 174.334)">
        <path id="Tracé_446" data-name="Tracé 446" d="M2.313-30.719v1.03H3.507v.829H2.313v1.537a.456.456,0,0,0,.1.343.633.633,0,0,0,.4.088h.6v.829H2.413a1.346,1.346,0,0,1-.973-.286,1.346,1.346,0,0,1-.286-.973V-28.86H.578v-.829h.575v-1.03Z" transform="translate(-0.578 30.719)"/>
      </g>
      <g id="Groupe_183" data-name="Groupe 183" transform="translate(92.4 175.276)">
        <path id="Tracé_447" data-name="Tracé 447" d="M5.767-22.61v.331H3.056a.861.861,0,0,0,.294.611,1.1,1.1,0,0,0,.708.2,2.791,2.791,0,0,0,.748-.107,3.847,3.847,0,0,0,.788-.329v.893a4.836,4.836,0,0,1-.822.234,4.308,4.308,0,0,1-.822.081,2.187,2.187,0,0,1-1.532-.5,1.813,1.813,0,0,1-.545-1.4,1.828,1.828,0,0,1,.535-1.395A2.059,2.059,0,0,1,3.885-24.5a1.847,1.847,0,0,1,1.369.516,1.858,1.858,0,0,1,.514,1.373Zm-1.191-.384a.737.737,0,0,0-.194-.533.659.659,0,0,0-.5-.2.79.79,0,0,0-.549.189.882.882,0,0,0-.26.547Z" transform="translate(-1.874 24.5)"/>
      </g>
      <g id="Groupe_184" data-name="Groupe 184" transform="translate(96.911 173.953)">
        <path id="Tracé_448" data-name="Tracé 448" d="M4.694-31.293v-1.941H5.859V-28.2H4.694v-.523a1.575,1.575,0,0,1-.528.469A1.437,1.437,0,0,1,3.5-28.1a1.354,1.354,0,0,1-1.1-.533,2.118,2.118,0,0,1-.429-1.371A2.118,2.118,0,0,1,2.4-31.378a1.354,1.354,0,0,1,1.1-.533,1.417,1.417,0,0,1,.665.152,1.575,1.575,0,0,1,.53.466Zm-.765,2.346a.654.654,0,0,0,.568-.272,1.336,1.336,0,0,0,.2-.788,1.343,1.343,0,0,0-.2-.791.655.655,0,0,0-.568-.272.656.656,0,0,0-.566.272,1.353,1.353,0,0,0-.194.791,1.346,1.346,0,0,0,.194.788A.654.654,0,0,0,3.929-28.946Z" transform="translate(-1.969 33.234)"/>
      </g>
      <g id="Groupe_185" data-name="Groupe 185" transform="translate(104.222 173.953)">
        <path id="Tracé_449" data-name="Tracé 449" d="M5.6-28.946a.658.658,0,0,0,.568-.272,1.336,1.336,0,0,0,.2-.788,1.343,1.343,0,0,0-.2-.791A.659.659,0,0,0,5.6-31.07a.662.662,0,0,0-.571.275,1.325,1.325,0,0,0-.2.788,1.33,1.33,0,0,0,.2.788.663.663,0,0,0,.571.272Zm-.77-2.346a1.569,1.569,0,0,1,.53-.466,1.435,1.435,0,0,1,.67-.152,1.355,1.355,0,0,1,1.1.533,2.112,2.112,0,0,1,.431,1.371,2.112,2.112,0,0,1-.431,1.371,1.355,1.355,0,0,1-1.1.533,1.435,1.435,0,0,1-.67-.152,1.6,1.6,0,0,1-.53-.466v.523H3.672v-5.036h1.16Z" transform="translate(-3.672 33.234)"/>
      </g>
      <g id="Groupe_186" data-name="Groupe 186" transform="translate(108.492 175.364)">
        <path id="Tracé_450" data-name="Tracé 450" d="M.531-23.922h1.16l.973,2.46.829-2.46h1.16L3.129-19.954a1.918,1.918,0,0,1-.537.845,1.265,1.265,0,0,1-.807.242h-.67v-.76h.362a.756.756,0,0,0,.429-.095.614.614,0,0,0,.211-.336l.031-.1Z" transform="translate(-0.531 23.922)"/>
      </g>
      <g id="Groupe_187" data-name="Groupe 187" transform="translate(115.65 174.156)">
        <path id="Tracé_451" data-name="Tracé 451" d="M4.016-31.891H5.408l1.757,3.315v-3.315H8.346v4.833H6.954L5.2-30.373v3.315H4.016Z" transform="translate(-4.016 31.891)"/>
      </g>
      <g id="Groupe_188" data-name="Groupe 188" transform="translate(121.109 175.364)">
        <path id="Tracé_452" data-name="Tracé 452" d="M3.422-21.708v-2.214H4.587v.362q0,.294,0,.739c0,.3,0,.495,0,.594,0,.292.007.5.021.63a.679.679,0,0,0,.081.279.489.489,0,0,0,.185.175.551.551,0,0,0,.265.062.669.669,0,0,0,.568-.277,1.272,1.272,0,0,0,.208-.774v-1.79H7.066V-20.3H5.908v-.523a1.827,1.827,0,0,1-.556.466,1.379,1.379,0,0,1-.644.152,1.189,1.189,0,0,1-.959-.386,1.689,1.689,0,0,1-.327-1.12Z" transform="translate(-3.422 23.922)"/>
      </g>
      <g id="Groupe_189" data-name="Groupe 189" transform="translate(125.866 175.277)">
        <path id="Tracé_453" data-name="Tracé 453" d="M7.318-22.994v2.207H6.151v-1.691a6.433,6.433,0,0,0-.021-.646.667.667,0,0,0-.071-.263.477.477,0,0,0-.185-.175.541.541,0,0,0-.265-.064.674.674,0,0,0-.571.279,1.287,1.287,0,0,0-.206.777v1.783H3.672v-3.625h1.16v.53a1.76,1.76,0,0,1,.554-.466,1.416,1.416,0,0,1,.653-.152,1.175,1.175,0,0,1,.952.386,1.684,1.684,0,0,1,.327,1.12Z" transform="translate(-3.672 24.499)"/>
      </g>
      <g id="Groupe_190" data-name="Groupe 190" transform="translate(130.586 175.277)">
        <path id="Tracé_454" data-name="Tracé 454" d="M7.318-22.994v2.207H6.151v-1.691a6.433,6.433,0,0,0-.021-.646.667.667,0,0,0-.071-.263.477.477,0,0,0-.185-.175.541.541,0,0,0-.265-.064.674.674,0,0,0-.571.279,1.287,1.287,0,0,0-.206.777v1.783H3.672v-3.625h1.16v.53a1.76,1.76,0,0,1,.554-.466,1.416,1.416,0,0,1,.653-.152,1.175,1.175,0,0,1,.952.386,1.684,1.684,0,0,1,.327,1.12Z" transform="translate(-3.672 24.499)"/>
      </g>
      <g id="Groupe_191" data-name="Groupe 191" transform="translate(135.305 173.953)">
        <path id="Tracé_455" data-name="Tracé 455" d="M3.672-31.823h1.16V-28.2H3.672Zm0-1.411h1.16v.945H3.672Z" transform="translate(-3.672 33.235)"/>
      </g>
      <g id="Groupe_192" data-name="Groupe 192" transform="translate(137.306 175.276)">
        <path id="Tracé_456" data-name="Tracé 456" d="M5.076-24.3v.945a1.774,1.774,0,0,0-.474-.239,1.562,1.562,0,0,0-.492-.078,1,1,0,0,0-.758.284,1.1,1.1,0,0,0-.27.791,1.1,1.1,0,0,0,.27.791,1,1,0,0,0,.758.284,1.633,1.633,0,0,0,.516-.081,1.546,1.546,0,0,0,.45-.242v.949a3.208,3.208,0,0,1-.552.149,3.093,3.093,0,0,1-.561.052,2.2,2.2,0,0,1-1.534-.5,1.8,1.8,0,0,1-.554-1.4A1.793,1.793,0,0,1,2.429-24a2.2,2.2,0,0,1,1.534-.5,3.17,3.17,0,0,1,.561.05,3.27,3.27,0,0,1,.552.152Z" transform="translate(-1.875 24.5)"/>
      </g>
      <g id="Groupe_193" data-name="Groupe 193" transform="translate(141.508 173.953)">
        <path id="Tracé_457" data-name="Tracé 457" d="M7.318-30.4V-28.2H6.151v-1.683q0-.476-.021-.653a.667.667,0,0,0-.071-.263.477.477,0,0,0-.185-.175.541.541,0,0,0-.265-.064.674.674,0,0,0-.571.279,1.287,1.287,0,0,0-.206.777V-28.2H3.672v-5.036h1.16v1.941a1.76,1.76,0,0,1,.554-.466,1.416,1.416,0,0,1,.653-.152,1.175,1.175,0,0,1,.952.386,1.684,1.684,0,0,1,.327,1.12Z" transform="translate(-3.672 33.233)"/>
      </g>
      <g id="Groupe_194" data-name="Groupe 194" transform="translate(145.956 175.276)">
        <path id="Tracé_458" data-name="Tracé 458" d="M3.772-22.419a.982.982,0,0,0-.545.123.409.409,0,0,0-.182.362.429.429,0,0,0,.147.346.618.618,0,0,0,.41.123.728.728,0,0,0,.549-.234.815.815,0,0,0,.225-.587v-.133Zm1.771-.438v2.069H4.376v-.537a1.508,1.508,0,0,1-.526.481,1.524,1.524,0,0,1-.708.152,1.288,1.288,0,0,1-.916-.329,1.114,1.114,0,0,1-.35-.852,1.048,1.048,0,0,1,.438-.935,2.5,2.5,0,0,1,1.378-.3h.684V-23.2a.434.434,0,0,0-.218-.4,1.374,1.374,0,0,0-.677-.128,3,3,0,0,0-.691.076,2.379,2.379,0,0,0-.6.223v-.883a6.235,6.235,0,0,1,.748-.137,6.042,6.042,0,0,1,.751-.047,2.1,2.1,0,0,1,1.416.388,1.6,1.6,0,0,1,.436,1.255Z" transform="translate(-1.876 24.501)"/>
      </g>
      <g id="Groupe_195" data-name="Groupe 195" transform="translate(152.929 174.069)">
        <path id="Tracé_459" data-name="Tracé 459" d="M6.638-32.23v1.023a4.523,4.523,0,0,0-.779-.268,3.028,3.028,0,0,0-.715-.092,1.376,1.376,0,0,0-.661.123.412.412,0,0,0-.213.384.357.357,0,0,0,.144.3,1.426,1.426,0,0,0,.523.185l.53.107a2.319,2.319,0,0,1,1.146.492,1.243,1.243,0,0,1,.341.938,1.451,1.451,0,0,1-.476,1.191,2.248,2.248,0,0,1-1.449.391,5,5,0,0,1-.923-.088,5.562,5.562,0,0,1-.923-.26v-1.051a4.649,4.649,0,0,0,.893.372,3.044,3.044,0,0,0,.836.123,1.182,1.182,0,0,0,.623-.135.434.434,0,0,0,.218-.388.433.433,0,0,0-.147-.35,1.506,1.506,0,0,0-.587-.22l-.483-.107a2.089,2.089,0,0,1-1.061-.495,1.253,1.253,0,0,1-.334-.916,1.363,1.363,0,0,1,.466-1.11,2.044,2.044,0,0,1,1.34-.388,5.952,5.952,0,0,1,.819.059,7.322,7.322,0,0,1,.871.18Z" transform="translate(-3.141 32.469)"/>
      </g>
      <g id="Groupe_196" data-name="Groupe 196" transform="translate(157.746 175.364)">
        <path id="Tracé_460" data-name="Tracé 460" d="M3.422-21.708v-2.214H4.587v.362q0,.294,0,.739c0,.3,0,.495,0,.594,0,.292.007.5.021.63a.679.679,0,0,0,.081.279.489.489,0,0,0,.185.175.551.551,0,0,0,.265.062.669.669,0,0,0,.568-.277,1.272,1.272,0,0,0,.208-.774v-1.79H7.066V-20.3H5.908v-.523a1.827,1.827,0,0,1-.556.466,1.379,1.379,0,0,1-.644.152,1.189,1.189,0,0,1-.959-.386,1.689,1.689,0,0,1-.327-1.12Z" transform="translate(-3.422 23.922)"/>
      </g>
      <g id="Groupe_197" data-name="Groupe 197" transform="translate(162.504 175.276)">
        <path id="Tracé_461" data-name="Tracé 461" d="M4.832-21.311v1.9H3.672v-5h1.16v.53a1.569,1.569,0,0,1,.53-.466,1.435,1.435,0,0,1,.67-.152,1.355,1.355,0,0,1,1.1.533A2.112,2.112,0,0,1,7.564-22.6a2.112,2.112,0,0,1-.431,1.371,1.355,1.355,0,0,1-1.1.533,1.435,1.435,0,0,1-.67-.152,1.6,1.6,0,0,1-.53-.466ZM5.6-23.66a.662.662,0,0,0-.571.275,1.325,1.325,0,0,0-.2.788,1.33,1.33,0,0,0,.2.788.663.663,0,0,0,.571.272.658.658,0,0,0,.568-.272,1.336,1.336,0,0,0,.2-.788,1.343,1.343,0,0,0-.2-.791A.659.659,0,0,0,5.6-23.66Z" transform="translate(-3.672 24.5)"/>
      </g>
      <g id="Groupe_198" data-name="Groupe 198" transform="translate(166.977 175.276)">
        <path id="Tracé_462" data-name="Tracé 462" d="M3.772-22.419a.982.982,0,0,0-.545.123.409.409,0,0,0-.182.362.429.429,0,0,0,.147.346.618.618,0,0,0,.41.123.728.728,0,0,0,.549-.234.815.815,0,0,0,.225-.587v-.133Zm1.771-.438v2.069H4.376v-.537a1.508,1.508,0,0,1-.526.481,1.524,1.524,0,0,1-.708.152,1.288,1.288,0,0,1-.916-.329,1.114,1.114,0,0,1-.35-.852,1.048,1.048,0,0,1,.438-.935,2.5,2.5,0,0,1,1.378-.3h.684V-23.2a.434.434,0,0,0-.218-.4,1.374,1.374,0,0,0-.677-.128,3,3,0,0,0-.691.076,2.379,2.379,0,0,0-.6.223v-.883a6.235,6.235,0,0,1,.748-.137,6.042,6.042,0,0,1,.751-.047,2.1,2.1,0,0,1,1.416.388,1.6,1.6,0,0,1,.436,1.255Z" transform="translate(-1.876 24.501)"/>
      </g>
    </g>
    <rect id="Rectangle_1480" data-name="Rectangle 1480" width="116" height="29" transform="translate(179 1919)" fill="#f7f5f3"/>
  </g>
</svg>
